<svg width="156" height="95" viewBox="0 0 156 95" fill="none"
  xmlns="http://www.w3.org/2000/svg">
  <g clip-path="url(#clip0_2_30)">
    <path d="M49.4006 33.1213C21.6496 50.6479 6.69792 45.863 5.13571 58.8622C3.5802 71.8614 -9.44718 79.1404 13.1747 89.4151C35.7966 99.6897 55.2472 93.2037 70.6682 90.3165C86.0892 87.4293 120.418 80.7128 120.418 80.7128C120.418 80.7128 151.729 67.2595 154.759 55.121C157.79 42.9825 155.021 13.5276 149.134 10.0778C143.247 6.6281 140.156 -5.12406 121.014 2.54128C101.872 10.2066 80.6248 33.5279 77.1383 34.47C73.6518 35.4053 49.4006 33.1213 49.4006 33.1213Z" fill="#CA8E60"/>
  </g>
  <defs>
    <clipPath id="clip0_2_30">
      <rect width="156" height="95" fill="white"/>
    </clipPath>
  </defs>
</svg>
