<svg width="595" height="421" viewBox="0 0 595 421" fill="none"
  xmlns="http://www.w3.org/2000/svg">
  <g clip-path="url(#clip0_2_41)">
    <path d="M184.416 124.283C79.9944 196.93 22.0022 167.136 17.5992 229.424C13.1962 291.712 -35.9197 321.201 52.1852 380.961C140.29 440.721 214.19 417.882 273.057 410.705C331.917 403.527 462.922 386.163 462.922 386.163C462.922 386.163 581.516 334.831 591.675 277.37C601.834 219.91 587.611 76.0258 564.587 56.7177C541.564 37.4095 528.259 -20.8769 455.686 7.78679C383.113 36.4568 304.369 140.067 291.096 143.071C277.817 146.075 184.422 124.283 184.422 124.283H184.416Z" fill="#4757A7"/>
  </g>
  <defs>
    <clipPath id="clip0_2_41">
      <rect width="595" height="421" fill="white"/>
    </clipPath>
  </defs>
</svg>
