<svg width="148" height="162" viewBox="0 0 148 162" fill="none"
  xmlns="http://www.w3.org/2000/svg">
  <g clip-path="url(#clip0_2_99)">
    <path d="M143.728 91.9359C143.728 91.9359 141.311 71.5923 140.511 69.1562C139.703 66.7126 131.659 48.0031 131.659 48.0031L84.1792 0L28.2069 51.8161L10.6767 95.4539L0 162H148L143.72 91.9435L143.728 91.9359Z" fill="#F7F2DF"/>
    <path d="M39.3175 76.351C39.3175 76.351 39.2203 76.351 39.2203 76.3056C39.2203 76.2073 39.5046 75.7306 39.3175 75.7836L39.4148 75.6853C39.5569 75.307 39.5121 74.9211 39.5121 74.5429C39.5121 74.1646 39.6542 73.8317 39.744 73.4988L39.6467 73.3551C39.744 73.2567 39.8338 73.1659 39.8338 73.0676C39.8338 72.9238 39.7365 72.7801 39.6467 72.6364L39.6018 72.7347L39.5569 72.6364C39.5569 72.4926 39.6542 72.3489 39.8413 72.4018L39.9834 71.9706C40.0283 71.8722 39.9385 71.7361 39.9385 71.6377C39.9385 71.6377 40.365 71.2065 40.0807 71.2065C40.2228 70.8282 40.2228 70.4424 40.365 70.0641L40.2677 69.9657C40.2677 69.3454 40.4997 68.3467 40.7391 67.7793C40.6418 67.6356 40.5969 67.4918 40.5969 67.3481C40.5969 66.8714 41.2553 64.3975 41.3975 63.6864L41.3526 63.4972L41.4948 63.5956C41.5397 63.2173 41.9212 62.5515 41.9212 62.3095C41.9212 62.2641 41.9212 62.2111 41.824 62.1657V61.4999L41.6818 61.4016V61.3032L41.824 61.2049L41.7791 61.0611L41.9212 61.1595C42.3926 59.9717 45.3106 58.7764 46.4852 58.6402C47.2858 58.5418 48.1312 58.6402 48.8869 58.5418C49.074 58.4964 49.3583 58.4435 49.5453 58.4435C51.3335 58.731 55.2391 58.731 56.5559 60.0625C56.8402 60.35 56.9824 60.7283 57.2143 61.0611L57.117 61.1595C57.4462 61.447 57.349 62.8769 57.349 63.3459C57.0198 63.9209 57.117 64.9649 56.5933 65.4416V65.6761L56.4511 65.8198C56.0247 67.1968 54.4235 68.672 53.3012 69.4361L53.204 69.7236C52.4034 70.2003 51.558 70.6315 50.7125 71.0552C52.972 71.2897 55.4635 71.7663 55.1867 74.6715C55.0894 74.8152 54.8126 76.1467 54.4834 76.6688C53.9671 77.4329 53.2564 78.0986 52.7925 78.8552C52.5605 79.2335 52.0892 79.2335 52.1341 79.7101C49.7773 81.2837 47.0987 82.9481 44.1808 82.9481C43.5673 82.9481 43.0061 82.9027 42.4375 82.9027C42.1083 82.9027 41.824 82.6682 41.4948 82.6152C39.2801 82.2824 39.0931 81.9041 39.0931 79.7101C39.0931 78.9989 39.325 78.424 38.9958 77.7582C39.2801 76.9941 39.3699 77.6145 39.325 76.3283L39.3175 76.351ZM44.0686 80.3986H44.1658C46.141 80.3986 50.5703 76.1165 50.5703 74.2554V74.0208C50.3833 73.8771 50.286 73.6426 50.2411 73.4005C49.5827 73.1659 49.0665 73.0676 48.3557 73.0676C47.7422 73.0676 44.9215 73.1659 44.7344 73.3551V73.5896C44.7344 74.1116 44.5025 74.6336 44.4052 75.1632C44.2182 76.6385 44.076 78.2121 44.076 79.6874V80.3986H44.0686ZM45.2432 69.9733H45.3405C45.9989 69.9733 49.3882 68.3089 49.8596 67.7869C50.3758 67.3102 50.705 66.6899 51.1315 66.2132C51.4607 65.782 51.745 65.6383 51.7001 65.1163C52.0293 64.5942 52.6428 63.2097 52.6428 62.6423V62.4986L52.5456 62.4002C52.2613 60.6829 51.0417 60.6375 49.5304 60.6375C48.4978 60.6375 47.8843 60.9704 47.0389 61.5453C46.7097 61.8328 46.1934 63.641 46.2383 64.0646H46.141C46.2832 64.9725 45.3854 67.923 45.3854 69.1108L45.2432 69.3983V69.9733Z" fill="#231F20"/>
    <path d="M61.9578 64.5942C64.7336 63.4518 67.4645 63.0736 70.4797 63.0736H71.7517C72.7393 63.5048 74.1983 62.839 74.3404 64.4051L74.1534 64.6926L74.0112 64.738V65.0255C73.5399 65.6458 68.4073 65.4037 68.1304 65.835C67.5169 66.6899 67.9434 68.4073 67.5169 69.3075L67.6142 69.3529C67.4271 69.5421 67.4271 69.8296 67.4271 70.0641V70.4424C67.472 70.4424 67.5693 70.4878 67.6142 70.4424C68.4147 70.2078 69.0283 70.0111 69.8737 70.0111L70.577 70.0565L70.6743 70.1019C71.43 70.3365 73.1209 70.0036 73.1209 71.2443L73.076 71.5318C72.9787 71.6755 72.5597 71.7663 72.844 71.963C71.5272 72.7272 69.3126 72.538 68.0406 74.0587C68.1379 74.4899 67.1428 74.3916 66.866 74.3916C66.4919 75.0119 66.634 77.2438 66.1103 78.1062H66.1552C66.9109 78.1062 68.2726 77.0092 69.2602 77.0092C70.4872 77.0092 71.8938 77.153 72.7468 78.0079C72.7917 78.4391 72.3727 78.3861 72.4176 79.0065C70.8164 79.9144 65.9233 82.4337 64.4643 82.4337C63.9929 82.4337 62.1598 82.1008 61.7783 81.8587C61.494 81.6696 61.262 81.3821 60.9777 81.1929C60.9328 80.9055 60.8355 80.5726 60.8804 80.2851L61.0675 79.8539C60.9702 79.3318 61.1648 78.8098 61.1648 78.2802C61.1648 78.2348 61.4491 77.7052 61.4491 77.4253C61.494 75.9954 62.5788 73.5215 62.2047 72.19L62.302 72.1446C62.4442 71.5696 62.6312 70.9039 62.4891 70.3818L62.6312 70.1927C62.5863 69.7615 62.7734 69.1941 62.7734 68.672C62.7734 68.1954 63.1475 67.6734 63.1475 67.2422C63.1475 66.9547 60.6036 66.478 60.6036 65.8123C60.6036 65.434 61.6361 64.7153 61.9653 64.5715L61.9578 64.5942Z" fill="#231F20"/>
    <path d="M77.9542 82.1992C77.9991 81.9646 77.7672 81.488 77.9542 81.2459C78.1413 81.0114 78.0964 80.7693 78.1861 80.5347C78.2834 80.3002 77.9018 79.7252 78.1413 79.5361C78.3283 79.347 78.7548 78.25 78.8445 77.9171L78.7473 77.3421L79.0765 76.9109C79.0765 76.9109 78.9792 76.6234 79.0765 76.4342C79.1738 76.2451 79.69 73.34 79.69 73.34C79.69 73.34 79.7349 73.0525 79.8322 72.7196C79.9294 72.3867 79.6002 72.1976 79.9294 72.0084C80.2586 71.8193 79.7424 71.2443 80.0267 71.1989C80.311 71.1535 80.3559 70.7223 80.3559 70.7223C80.3559 70.7223 80.2586 69.4815 80.4981 69.2924C80.73 69.1033 80.5429 68.6266 80.5429 68.4375C80.5429 68.2484 80.4981 68.0592 80.6402 67.9155C80.7824 67.7717 80.8722 67.2951 81.0667 67.2497C81.2537 67.2043 81.1639 66.009 81.2986 65.7745C81.4408 65.5399 81.8149 64.8212 81.8149 64.8212C81.8149 64.8212 81.9121 64.2992 82.0992 64.2992C82.2862 64.2992 82.2413 63.9209 82.4733 63.6788C82.7052 63.4443 82.6154 63.0131 82.8474 63.0131C83.0793 63.0131 82.7501 62.8693 83.0344 62.7256C83.3187 62.5818 83.4085 62.2035 83.4085 62.2035C83.835 62.0144 84.5832 61.7723 85.0545 61.6286C85.5259 61.4848 86.3714 61.2957 87.2168 61.394C88.0623 61.4924 88.7731 61.6815 89.1921 61.7269C89.6185 61.7723 89.6185 61.9614 89.8056 62.2035C89.9926 62.4381 89.9477 62.8239 90.232 62.8693C90.5164 62.9147 90.7034 63.2476 90.7034 63.2476L90.9877 64.0117C90.9877 64.0117 90.8905 64.4429 91.085 64.5337C91.272 64.6321 91.272 65.3432 91.272 65.3432L91.6012 66.2511C91.6012 66.2511 91.5563 66.3948 91.6012 66.9622C91.6461 67.5297 91.9753 68.2938 92.0277 68.5359C92.0726 68.7704 91.8855 69.7766 91.8855 69.7766C91.8855 69.7766 91.9304 70.2078 91.8855 70.4878C91.8407 70.7677 91.8855 71.0627 91.8855 71.0627C91.8855 71.0627 91.8856 71.3956 91.9828 71.9176C92.0801 72.4397 91.9379 73.06 91.9379 73.06C91.9379 73.06 91.893 74.3916 92.0801 74.3916C92.2671 74.2932 91.9379 74.9665 92.0801 75.1557C92.2222 75.3448 92.125 76.0635 92.125 76.0635C92.125 76.0635 91.7509 76.351 91.9828 76.7293C92.2148 77.1076 91.8407 77.3951 92.0801 77.7733C92.3195 78.1516 92.5514 78.5828 92.3644 78.772C92.1773 78.9611 92.7385 79.2032 92.6487 79.4377C92.5514 79.6723 92.5514 79.6269 92.5514 80.2019C92.5514 80.7768 92.3195 81.2459 92.3195 81.2459C92.3195 82.0554 91.8032 83.0541 90.9054 83.0541C90.4341 83.0541 90.2919 83.4323 89.8729 83.0541C89.4539 82.6758 89.2145 82.7212 88.9751 82.6228C88.7357 82.5245 88.2718 82.3883 88.2718 82.3883C88.0398 82.2445 88.0847 82.1992 87.9426 82.0554C87.8004 81.9117 87.5161 81.5788 87.6583 81.435C87.8004 81.2913 87.8004 81.1475 87.8004 80.8147C87.8004 80.4818 87.6583 80.1489 87.6583 79.9598C87.6583 79.7706 87.5161 79.5815 87.6583 79.1049C87.8004 78.6282 87.4712 78.6736 87.5161 78.25C87.561 77.8263 87.561 77.9171 87.561 77.6296C87.561 77.3421 87.1869 77.2513 87.3739 76.9184C87.561 76.5856 87.1869 76.4872 87.3291 76.2073C87.4712 75.9274 87.5161 75.7306 87.5161 75.5415C87.5161 75.3524 87.4188 74.7774 87.2318 74.8304C87.0447 74.8758 86.102 75.0649 85.7728 75.1632C85.4436 75.2616 84.9722 75.4507 84.6879 75.4507C84.4036 75.4507 84.4036 75.1178 84.0744 75.6853C83.7452 76.2527 83.7452 76.3964 83.7452 76.6839C83.7452 76.9714 83.8425 77.0622 83.7901 77.5388C83.7377 78.0154 83.2739 77.7279 83.2739 78.2046C83.2739 78.6812 83.0419 78.8249 83.1317 79.2032C83.2215 79.5815 83.1766 79.7782 83.1766 79.7782C83.1766 79.7782 83.4609 79.9673 83.2215 80.444C82.9821 80.9206 82.8923 81.1097 82.795 81.541C82.6977 81.9722 82.6528 82.1159 82.6977 82.4488C82.7426 82.7817 82.795 82.7363 82.6005 82.9708C82.4059 83.2054 82.6454 83.2583 82.4134 83.7349C82.1815 84.2116 82.2713 83.7803 82.1815 84.3099C82.0842 84.8319 82.4134 84.4083 81.8523 84.9303C81.2837 85.4523 81.2388 85.5053 80.9096 85.5053C80.5804 85.5053 80.2512 85.2707 80.0117 85.3615C79.7723 85.4523 79.5404 85.6944 79.2112 85.4599C78.882 85.2253 78.5976 85.127 78.5976 85.127L77.842 84.8925V84.3704C77.842 84.3704 77.7447 83.8938 77.7447 83.3718C77.7447 82.8498 77.8869 82.4639 77.9318 82.2294L77.9542 82.1992ZM84.6356 72.8709C84.9199 72.8255 84.8226 72.8255 85.294 72.7271C85.7653 72.6288 86.6108 72.6818 86.8951 72.5834C87.1794 72.4851 87.6508 72.4397 87.6508 72.4397C87.6508 72.4397 87.1794 71.963 87.4637 71.6755C87.748 71.3881 87.561 70.7223 87.561 70.7223C87.561 70.7223 87.4188 70.4878 87.4637 70.0565C87.5086 69.6253 87.3665 69.247 87.3665 69.247V67.9155C87.3665 67.9155 87.3216 67.2951 87.3216 67.106C87.3216 66.9168 87.1794 66.6294 87.1794 66.6294C87.1345 66.3419 87.1794 66.2511 87.0373 65.8652L86.8951 65.487C86.8502 65.7215 86.2816 65.4416 86.1918 66.1073C86.0945 66.7731 86.0048 66.9622 86.0048 67.2043C86.0048 67.4464 85.8626 67.681 85.7204 67.9155C85.5783 68.15 85.4885 68.2484 85.5783 68.6266C85.6681 69.0049 85.5783 69.247 85.5334 69.4362C85.4885 69.6253 85.4361 69.8144 85.3463 70.1019C85.2566 70.3894 85.4885 70.2457 85.2491 70.7677C85.0097 71.2897 84.9199 71.4788 84.9199 71.7663C84.9199 72.0538 84.7777 71.7663 84.6879 72.243C84.5982 72.7196 84.643 72.8633 84.643 72.8633L84.6356 72.8709Z" fill="#231F20"/>
    <path d="M98.8437 77.9322L98.8288 77.8792C98.7764 77.6598 99.0083 77.4329 98.956 77.221C98.9335 76.8806 98.7988 76.3434 98.8961 76.0333L98.6567 75.9803L98.754 75.4431L98.6342 74.959L98.7315 74.8757L98.6791 74.6563L98.5445 74.5731L98.5071 74.4142C98.4173 74.036 98.507 73.4988 98.4771 73.1054C98.4622 73.0524 98.4397 72.9465 98.3424 73.0222L98.2676 72.2354L98.4846 72.1824L98.4173 72.1446C98.3424 71.8193 98.5145 71.3729 98.3424 70.9038L98.5071 70.1776L98.0806 70.2835C98.3649 69.8144 98.3125 67.0152 98.1853 66.478L98.335 66.1527L98.1778 65.5021C98.2601 65.3659 98.5145 65.0179 98.4622 64.7985C98.6791 64.5186 99.0532 64.4278 99.2029 64.1025L99.1879 64.0495C99.1505 63.8906 99.4722 63.8074 99.577 63.7847C100.22 63.6258 100.924 63.7393 101.552 63.5275L101.822 63.6939C101.851 63.5729 101.926 63.4367 102.091 63.3989C102.36 63.3308 102.615 63.4443 102.839 63.4443L102.824 63.6183C102.996 63.6334 103.161 63.5956 103.236 63.4594C103.393 63.6485 103.565 63.8906 103.849 63.8831C103.61 64.0571 103.737 64.6018 103.789 64.8136C103.625 65.3129 103.595 65.8955 103.55 66.4175C103.587 66.3494 103.722 66.4326 103.67 66.4478C103.393 67.6582 103.946 69.247 103.842 70.4726L103.976 70.5558L103.797 71.0022L104.044 72.0311C103.924 72.2354 104.051 72.5456 104.104 72.7574C103.902 73.3248 104.515 74.9514 104.313 75.2843L104.702 76.9109C104.725 77.0168 104.807 77.1151 104.837 77.221C104.934 77.1378 104.949 76.9638 104.971 76.8428C105.405 76.2753 106.617 74.2629 106.685 73.6123C106.715 73.2643 106.625 72.6515 106.79 72.3867C106.954 72.1219 107.111 71.8495 107.223 71.5923C107.358 70.9871 107.036 69.6328 107.104 68.9822C107.089 68.7023 107.306 68.4148 107.246 68.1424L107.036 67.9684C107.014 67.628 106.909 66.5083 107.021 66.2511L106.834 66.183L106.969 66.0317L106.902 65.7593C106.775 65.2222 106.692 64.6623 106.617 64.11C106.655 64.0419 106.752 63.7317 106.55 63.8377L106.595 63.3081L106.475 63.0509L106.632 63.013C106.565 62.7407 106.371 61.9312 106.655 61.6891C106.52 61.6058 106.445 61.5151 106.415 61.4016C106.341 61.0763 106.909 60.8796 107.089 60.6602L107.104 60.2516L107.328 60.4861C107.358 60.3651 107.44 60.2289 107.598 60.1911C108.136 60.0625 109.027 60.0095 109.573 60.1608L110.082 59.9187L110.426 59.949L110.56 59.7977C110.613 59.7826 111.443 60.1533 111.563 60.1835L111.683 60.2138L111.982 61.4545C111.952 61.5756 111.87 61.9387 112.102 61.9387C112.266 63.7923 112.423 65.6383 112.536 67.5069C112.573 67.9003 112.73 68.3164 112.73 68.7779L112.648 68.9141C113.015 70.2002 112.139 71.736 112.326 73.0071C112.192 73.1584 112.057 73.3021 111.989 73.4912L112.094 73.6955C112.094 73.6955 110.86 76.8049 110.777 76.9411C110.628 77.4934 109.88 77.675 109.797 78.2726C109.678 78.4769 109.221 78.7039 109.408 78.9989C109.176 79.2259 108.002 80.2018 108.181 80.5045C107.366 81.1097 106.715 81.9495 105.697 82.2067C105.158 82.3353 102.495 82.305 101.941 82.1537C101.687 82.0403 101.073 81.6242 100.797 81.6317L100.303 81.2383C100.093 80.8298 99.6667 80.7087 99.764 80.164C99.5396 79.4756 99.0906 78.5526 99.0308 77.8263L98.8288 77.9322H98.8437Z" fill="#231F20"/>
    <path d="M36.22 91.2626C36.3622 91.2172 36.5492 91.0735 36.5941 90.9297C37.7688 90.1202 40.2677 90.2186 41.8165 89.742C42.1906 89.6436 42.43 89.167 42.9014 89.167H44.8766C45.0636 89.0686 45.2058 89.0686 45.3929 89.0686C46.7097 89.0686 48.0265 88.5466 49.3957 88.5466C50.1514 88.5466 51.0417 88.7357 51.7525 88.6449C51.9395 88.8795 52.0368 89.167 52.0368 89.4545V89.742C51.8498 89.8857 51.7525 90.0748 51.7076 90.264C50.0616 90.9297 48.3632 90.9297 46.7172 91.4517C46.0587 91.6409 46.1485 92.405 46.1485 92.927C46.1485 93.5928 45.7221 94.0694 45.7221 94.6898L45.7669 94.8789L45.7221 95.0681L45.7669 95.2118C45.6248 95.4993 45.7221 95.9759 45.6248 96.3088C45.7221 96.3542 45.7221 96.4072 45.7221 96.4525C45.7221 96.5963 45.6248 96.7854 45.535 96.8838C45.6323 96.8838 45.5799 97.0275 45.5799 97.0729C45.5799 97.9278 45.4377 99.9251 45.1085 100.689V101.355L45.2058 101.499C44.8317 102.074 44.9739 103.307 44.9739 103.973C44.9739 104.116 44.8317 104.26 44.8766 104.449L44.6896 104.782C44.7344 105.213 44.7868 105.735 44.5474 106.114L44.6447 106.212V106.832C44.6447 107.498 44.4576 108.262 44.3603 108.928L44.4576 109.072C44.3603 110.025 44.0311 111.357 44.1284 112.211L44.2257 112.355V114.209L43.8965 114.64V114.784C43.6645 115.162 42.9089 115.26 42.5348 115.26L42.2504 115.215L41.8763 115.071C40.8887 114.973 39.9909 114.927 39.3325 114.027C39.2876 113.929 39.2876 113.074 39.1454 113.029V112.121C39.1454 111.932 39.3325 111.742 39.3325 111.311C39.3325 110.025 39.6617 108.694 39.6617 107.407H39.5644C39.7515 106.454 39.9909 105.357 39.9909 104.411C39.9909 104.124 39.8039 103.889 39.8039 103.602C39.8039 103.413 40.1779 102.891 40.2303 102.558C40.3276 101.794 40.2752 101.037 40.4174 100.273L40.2303 100.039C40.3725 99.7057 40.3276 98.9945 40.3276 98.6087C40.5595 98.465 40.4249 98.2304 40.5595 98.1775C40.6044 97.5571 40.7466 97.0351 40.7466 96.4147L40.6493 96.3164C40.9336 96.1272 40.9336 95.9381 40.8364 95.6506H40.9785V95.5069C40.9785 94.9394 41.3526 94.3645 41.2105 93.7971L41.1656 93.6987C41.3077 93.4112 41.3077 92.8892 41.3077 92.5563C40.6942 92.5109 40.0807 92.6547 39.4223 92.6547C38.8088 92.6547 38.2476 92.3672 37.5892 92.3672C37.4022 92.2688 37.1627 92.178 36.9757 92.1326C36.8335 91.9435 36.5492 91.7014 36.3173 91.6106L36.22 91.2777V91.2626Z" fill="#231F20"/>
    <path d="M55.0071 104.116V103.019L55.1942 102.686L55.0969 102.452C55.284 101.642 55.1942 100.069 55.4261 99.456L55.3288 99.3577V98.9264C55.3288 98.8811 55.471 98.4952 55.5159 98.4044L55.4186 98.2607L55.6057 97.8295C55.5608 97.7841 55.5084 97.7311 55.5084 97.6857C55.5084 97.3528 55.7404 96.1121 56.0247 95.9683C55.9798 94.6822 56.1668 95.3026 56.728 94.6368L57.0123 94.5385L57.1095 94.3947H59.7432C59.8853 94.3947 60.0275 94.7276 60.2594 94.7276C60.3043 94.6822 60.4914 94.5839 60.4016 94.4401H60.4465C60.5438 94.4401 60.6784 94.8713 60.7308 94.9621V95.5371C60.5886 95.5825 60.6335 95.7716 60.6335 95.87C60.3043 96.3466 60.4016 96.6341 60.4016 97.1107C60.4016 97.7765 59.9751 98.4877 60.1697 99.161L60.2669 99.2593C60.2669 99.6906 59.9826 100.023 59.9826 100.447V103.92C59.9826 104.396 59.7507 104.775 59.7507 105.206C59.7507 105.584 59.9377 105.917 59.9377 106.348C59.9377 106.726 59.8405 107.112 59.7507 107.491C59.6534 107.536 59.6085 107.634 59.6534 107.725C59.4215 108.247 58.8528 108.345 58.3815 108.345C57.768 108.345 57.4388 108.111 56.8252 108.247L56.0247 108.013C55.6955 107.634 55.1792 107.536 55.0819 106.969H54.9847V106.394L54.9398 106.204V105.97L55.0819 105.637V105.062C54.9398 105.017 55.0371 104.684 55.0819 104.54L54.85 104.729L54.8051 104.54C54.8051 104.396 54.9024 104.253 54.9922 104.109L55.0071 104.116Z" fill="#231F20"/>
    <path d="M64.9356 108.542V108.444C64.9805 108.3 65.1676 108.156 65.1676 107.967C65.1676 107.824 65.1227 107.68 65.0703 107.589L64.9731 107.778V107.256C65.1152 107.256 65.205 107.067 65.2574 106.923L65.1601 106.348L64.9731 106.394V106.295C64.9731 105.962 65.3023 104.253 65.4893 103.965V103.057C65.4444 103.012 65.392 102.959 65.392 102.913C65.392 102.77 65.4893 102.626 65.5791 102.535V102.059H65.4369V102.391C65.3397 102.391 65.2948 102.248 65.2948 102.202C65.2948 102.013 65.3397 101.869 65.392 101.726H65.4369C65.6689 101.726 65.811 100.818 65.811 100.629C65.811 100.44 65.7138 100.25 65.7138 100.008L65.6165 100.107V99.6755L65.7138 99.8646C65.9008 99.5771 65.9008 99.0097 66.043 98.6768C66.043 98.2985 65.9457 97.9657 65.9457 97.6328C65.9457 96.7249 66.3722 95.9684 66.3198 94.9697C66.4171 94.7806 66.5517 94.4931 66.5517 94.2586V94.1602L66.3647 94.2586V93.9711L66.5517 93.8273C66.649 93.5928 66.649 93.3507 66.649 93.1162V92.8816C66.6041 92.8816 66.462 92.8816 66.462 92.7833C66.462 92.6849 66.5592 92.5942 66.649 92.5488C67.1204 91.2626 67.4496 91.5955 67.9658 90.8843L67.7788 90.786V90.6876C67.876 90.6423 67.9658 90.5893 68.0631 90.5893L68.2052 90.6876L68.3923 90.6423C68.7664 90.786 69.3799 90.5969 69.7091 90.786L69.8064 90.6876L70.0383 90.786C70.2254 90.7406 70.4124 90.5969 70.5995 90.5969L70.8838 90.786L71.1157 90.6423V90.9751C71.213 90.9297 71.4 90.8314 71.5422 90.8768L71.8714 91.2097C71.7292 91.3534 71.6843 91.308 71.6843 91.4972V91.7846H71.8714C72.3876 91.7846 72.859 91.883 73.4276 91.883C74.3255 91.883 75.2158 91.9813 76.1136 91.9813C75.9266 92.6017 75.6872 92.7909 75.545 92.7909C75.2607 92.7909 75.3131 92.0267 76.5326 91.9813C77.6175 91.9813 77.7597 92.0267 77.7597 92.4126L78.0889 93.2675C77.9467 93.4112 77.9018 94.0316 77.8046 94.1753C77.8046 94.2207 76.9067 94.2207 76.8618 94.2207C74.6472 94.2207 75.5899 94.2661 74.2282 94.2661H71.4524L71.2205 95.5977C70.9885 95.9759 71.0334 96.5055 71.0334 96.9292C71.0783 96.9292 71.0783 97.0275 71.0783 97.0729C71.0783 97.3604 70.8464 98.3137 70.7042 98.5482V100.122C70.5621 100.409 70.5172 100.788 70.5172 101.075L70.5621 101.31C72.2081 100.878 73.7119 99.7889 75.5076 99.7889C76.3082 99.7889 77.1536 99.9781 77.9542 99.9781C77.9991 100.122 78.1412 100.311 78.2834 100.455L77.9991 101.408C76.6374 102.172 71.7367 104.215 70.2777 104.26L70.1805 104.737L70.2777 104.835L70.3226 105.024C70.3226 105.645 70.0383 106.31 70.0383 106.931V109.881C70.0383 109.927 70.2703 110.547 70.2703 110.645C70.173 110.789 70.2703 110.88 70.2703 111.077C70.2703 111.22 70.0832 111.266 69.9411 111.311L70.0383 111.644C69.6118 111.932 69.1405 112.022 68.6242 112.022C68.0107 112.022 67.4496 111.735 66.7912 111.788C66.3198 111.644 65.4295 111.213 65.1451 110.789L65.0479 110.888C65.0479 110.653 65.0928 110.366 65.1451 110.123C65.0479 110.123 64.9581 110.025 64.9581 109.934C64.9581 109.647 65.1451 109.458 65.1451 109.17V109.125H65.0479V108.55H64.9057L64.9356 108.542Z" fill="#231F20"/>
    <path d="M82.9147 107.014V106.969C82.9147 106.779 83.1467 106.636 83.1467 106.447C83.1915 106.159 83.1915 105.682 83.3337 105.448L83.1467 105.35L83.3337 104.918V104.487L83.431 104.442V104.253L83.3337 104.154V104.01C83.3337 103.678 83.5208 103.246 83.5656 102.913C83.5656 102.868 83.5656 102.77 83.4684 102.815L83.5656 102.149H83.7527L83.7078 102.104C83.7078 101.816 83.9397 101.484 83.8948 101.06L84.1792 100.485H83.8051C84.1343 100.152 84.6505 97.8219 84.6505 97.3453L84.8376 97.1107V96.5358C84.9348 96.4374 85.2117 96.2029 85.2117 96.0137C85.4436 95.8246 85.7728 95.8246 85.9673 95.5825V95.5371C85.9673 95.3934 86.2517 95.3934 86.3414 95.3934C86.9026 95.3934 87.4712 95.6279 88.0324 95.5825L88.2194 95.7716C88.2643 95.6733 88.3616 95.5825 88.5037 95.5825C88.7357 95.5825 88.9302 95.7263 89.1172 95.7716L89.0723 95.9154C89.2145 95.9608 89.3567 95.9608 89.4464 95.87C89.5437 96.0591 89.6335 96.3012 89.8729 96.3466C89.641 96.445 89.641 96.9216 89.641 97.1107C89.409 97.489 89.2669 97.9656 89.1247 98.3969C89.1696 98.3515 89.2669 98.4423 89.222 98.4423C88.7506 99.3955 88.8928 100.825 88.5636 101.824L88.6608 101.922L88.4289 102.255V103.163C88.2867 103.307 88.3316 103.594 88.3316 103.784C88.0473 104.215 88.2344 105.69 88.0024 105.925V107.354C88.0024 107.453 88.0473 107.544 88.0473 107.642C88.1446 107.597 88.1895 107.453 88.2344 107.354C88.7057 106.976 90.1198 105.546 90.3069 105.024C90.4041 104.737 90.449 104.215 90.6361 104.026C90.8231 103.836 91.0102 103.647 91.1523 103.451C91.3843 102.974 91.3843 101.786 91.5788 101.264C91.6237 101.03 91.8631 100.833 91.8631 100.598L91.7209 100.409C91.7658 100.122 91.908 99.1686 92.0501 98.9794L91.908 98.8811L92.0501 98.7827V98.5482C92.0501 98.0716 92.095 97.5949 92.1474 97.1183C92.1923 97.0729 92.3345 96.8308 92.1474 96.8838L92.2896 96.4525L92.2447 96.218H92.3868C92.3868 95.9835 92.3868 95.2648 92.6711 95.121C92.5739 95.0227 92.529 94.9319 92.529 94.8335C92.529 94.546 93.0452 94.5006 93.2323 94.3569L93.3296 94.024L93.4717 94.2585C93.5166 94.1602 93.6139 94.0694 93.756 94.0694C94.2274 94.0694 94.9831 94.2132 95.4021 94.4477L95.8734 94.3493L96.1577 94.4477L96.2999 94.3493C96.3448 94.3493 96.9583 94.826 97.0556 94.8714L97.1528 94.9167V96.0137C97.1079 96.1121 96.9658 96.392 97.1528 96.445C96.9209 98.0186 96.6815 99.5847 96.3971 101.158C96.3523 101.491 96.3972 101.869 96.2999 102.255L96.2026 102.354C96.2475 103.496 95.215 104.593 95.1177 105.682C94.9756 105.781 94.8334 105.872 94.7436 106.015L94.7885 106.204C94.7885 106.204 93.1425 108.535 93.0452 108.633C92.8133 109.064 92.1474 109.064 91.9604 109.541C91.8182 109.685 91.3992 109.775 91.489 110.063C91.2571 110.207 90.0749 110.774 90.1722 111.062C89.3716 111.394 88.6683 111.969 87.7705 111.969C87.2991 111.969 85.0845 111.394 84.6655 111.16C84.4784 111.016 84.052 110.54 83.82 110.494L83.4908 110.063C83.3936 109.685 83.0644 109.488 83.2589 109.064C83.214 108.444 83.0269 107.589 83.1167 106.969L82.9297 107.014H82.9147Z" fill="#231F20"/>
    <path d="M101.133 109.299C101.133 108.92 101.56 108.444 101.56 108.111C101.56 108.066 101.515 107.967 101.462 107.922L101.275 108.3H101.23L101.186 108.202C101.186 107.869 101.657 107.68 101.657 107.392C101.657 107.347 101.657 107.294 101.612 107.249H101.47C102.128 106.25 101.896 106.394 102.039 105.342C101.941 105.342 101.994 105.244 101.994 105.198C101.994 104.623 102.323 103.103 102.465 102.581L102.278 102.482C102.375 102.339 102.749 101.862 102.465 101.816C102.607 101.582 102.697 101.294 102.697 101.052L102.465 100.954C102.839 100.576 102.749 100.19 102.891 99.7133L102.704 99.0929C102.847 98.5709 103.176 98.4725 103.131 97.8522C103.273 97.7084 103.273 97.1864 103.318 96.9973C103.273 96.9973 103.176 96.9519 103.176 96.8989C103.176 96.846 103.176 96.8006 103.221 96.7552C103.505 96.3769 104.066 93.8046 104.066 93.328L103.969 93.1389C104.201 92.9951 105.286 89.3788 105.286 89.0005C105.518 88.6677 105.712 88.3348 105.847 87.9035C106.131 87.669 106.602 87.5253 106.932 87.4269L107.261 87.5707C107.83 87.5253 110.037 88.0019 110.321 88.0019C110.553 88.2364 110.65 88.5239 110.65 88.8114L110.605 89.0989C110.037 90.1429 109.708 90.9524 109.333 92.0494C109.333 92.1478 108.204 96.619 108.204 96.6644C108.249 96.566 108.301 96.7098 108.301 96.7627C108.301 97.5722 107.83 98.4725 107.874 99.335L107.777 99.5241C107.874 100.046 107.545 100.568 107.448 101.045C107.216 101.998 107.306 103.042 107.216 104.041C107.119 104.994 106.558 106.136 106.558 107.09C106.558 107.233 106.558 107.468 106.745 107.468C107.119 107.468 112.536 104.563 113.426 104.563C113.8 104.563 114.182 104.661 114.601 104.661C114.833 104.85 115.686 104.85 116.015 104.805L116.157 104.903H116.254C116.396 104.903 116.538 104.903 116.486 105.047H116.913L116.77 105.334L117.1 105.667C116.868 105.955 116.726 106.333 116.583 106.666C115.783 107.044 110.845 109.094 110.605 109.427L108.959 110.282C108.533 110.903 105.899 112 105.099 112C104.627 112 103.026 111.478 102.51 111.288C102.226 111.145 101.994 110.956 101.477 110.524L101.38 110.623V109.715H101.283V109.284L101.141 109.329V109.284L101.133 109.299Z" fill="#231F20"/>
    <path d="M66.8286 52.898V52.845C66.8286 52.3305 69.3874 48.283 69.6493 47.1482L69.7016 47.2011C69.8588 47.2011 69.956 46.5808 70.0084 46.4219C70.0608 46.3689 70.4199 45.8545 70.2104 45.8015H70.3675C70.4723 45.4913 70.6743 45.1282 70.8763 44.871H70.981V44.7121C71.2354 44.243 72.7243 40.9293 72.7767 40.6721L72.9787 40.5662C73.0311 40.3619 73.8017 38.5992 73.9514 38.4933L74.2581 38.9094L74.3629 38.7051C74.3629 38.289 74.0561 38.864 74.0561 38.0318C74.0561 37.8275 74.7744 36.6851 74.8791 36.3749C75.0362 36.216 75.2383 36.0118 75.343 35.8075C75.2906 35.6032 75.8069 34.7181 76.0613 34.7181C76.166 34.7181 76.368 34.824 76.368 34.9223C76.368 35.0207 76.2109 35.0812 76.166 35.0812C76.0613 35.1871 76.0089 35.4973 76.0089 35.5957C76.0089 35.694 76.0089 35.8529 76.1136 35.8529L76.3157 35.6486C76.2633 35.6486 76.2109 35.5957 76.2109 35.4897C76.2109 35.2855 76.5177 35.1266 76.6224 34.9223C76.4653 34.8694 76.1585 34.6651 76.1585 34.5062C76.1585 34.4533 76.1585 34.4003 76.2633 34.3474L76.3157 34.5516C76.5177 34.5516 76.3157 34.2414 76.3157 34.1885C76.3157 34.0372 76.4204 33.9842 76.5177 33.9842V33.5152L77.5951 32.4257V32.3198C77.5951 31.8507 79.488 30.9731 79.8471 30.9731C80.7674 30.9731 84.1492 31.0261 84.2016 32.0626C84.254 32.0096 84.3064 31.9567 84.3587 31.9567C84.6655 31.9567 85.6381 34.3398 85.7429 34.65C85.9 34.9602 85.9449 35.3763 86.102 35.7394C86.1544 35.9437 86.4088 36.1026 86.5659 36.2539C86.723 36.5111 86.723 37.0331 86.925 37.3433V37.5476L87.1794 37.9107C87.127 38.3268 87.8453 39.9837 88.0024 40.5511C88.5112 42.7753 89.2295 44.9542 89.2818 47.2314C89.2818 48.2679 89.8954 49.2514 89.8954 50.2879C89.8954 52.4138 89.3866 52.8753 87.2842 52.8753C87.0298 52.4592 83.5432 52.7693 84.673 50.2349H84.471V49.5086L84.3138 49.6145L84.2615 49.5616C84.2615 49.1455 84.5158 48.7823 84.5158 48.3738C84.5158 48.2149 84.4635 48.0636 84.3138 48.0636V47.2314L84.1118 47.3373V47.2844C84.1118 47.0801 84.2689 46.8683 84.2689 46.664C84.2689 46.3008 83.5507 46.4068 83.2963 46.4068C81.2986 46.4068 77.3033 46.611 75.2532 46.9742C74.9465 47.0271 74.9988 47.5416 74.7893 47.8064V48.1695L74.535 48.2225C74.4826 48.3284 74.3778 48.5327 74.535 48.6386C74.4302 48.7445 74.3329 48.8428 74.1758 48.8958V49.0471L73.8167 49.6145V49.8718L73.4576 50.1819L73.5623 50.4392L73.2032 50.6964V50.9536C72.8964 51.3697 72.7917 51.8842 72.3802 52.1414V52.3457C72.1258 52.8601 71.7143 53.2233 71.5572 53.7983C71.1456 54.1614 71.1456 54.8347 70.8389 55.2508C70.5845 55.561 70.3301 55.561 70.1206 55.9771H69.2976L69.1929 55.8182H69.0881L68.9834 55.9771C68.931 56.083 68.8262 56.083 68.729 56.083C68.3175 56.083 68.1155 55.5686 67.8087 55.5686L67.5543 55.7199H66.9408C66.7388 55.4627 65.609 54.9406 65.609 54.7893C66.1178 53.9117 66.0729 53.6015 66.8361 52.8753L66.8286 52.898ZM75.949 44.2506H76.2034C77.7896 44.2506 79.3832 43.8874 81.0218 43.8874C81.7924 43.8874 82.5556 44.0463 83.3262 44.0463H83.633V43.8874C83.633 43.2671 83.1242 42.6467 83.4759 42.0263H83.2739C83.2215 41.7691 83.1691 40.5738 82.81 40.5738V40.1047L82.6528 39.8475C82.6528 39.2801 82.189 38.6597 82.0917 38.0318L81.9346 37.7745L81.8298 37.3055C81.6727 37.0482 81.1639 35.5957 80.9619 35.5957C80.5504 35.5957 80.2437 36.4279 80.094 36.7381L79.9369 36.6321L80.0417 36.8364C79.8396 37.1995 79.6301 37.5627 79.3758 37.9258C79.3758 38.0318 79.4805 38.0847 79.4805 38.1301C79.4805 38.1755 79.1214 38.3344 79.0166 38.3873V38.4933C79.0166 38.5992 79.2186 38.5992 79.2186 38.6975C79.2186 38.7959 78.8071 38.9018 78.7548 38.9018C78.8071 38.9547 78.9568 39.0607 78.9568 39.159C78.9568 39.3633 78.5453 39.3633 78.4929 39.5751C78.3358 39.9383 78.5453 40.2484 77.9318 40.0896C77.9841 40.1955 78.0365 40.2938 78.0365 40.3998C78.0365 41.232 76.9067 42.4727 77.0115 43.199H76.8544L76.6523 43.6681C76.5476 43.9253 75.9341 44.0842 75.9341 44.1825V44.2355L75.949 44.2506Z" fill="#231F20"/>
    <path d="M23.5007 147.55C23.5531 147.406 23.598 146.589 23.8 146.778C23.7027 146.68 23.7027 146.582 23.7027 146.491C23.7027 145.719 23.8973 144.947 23.8973 144.13L23.8449 143.548H23.6953V143.449C23.7476 143.351 23.8449 143.207 23.8449 143.109C23.7925 143.109 23.7476 143.064 23.7476 143.011C23.7476 142.723 24.0469 142.579 24.0469 142.383V142.337H23.9496V141.036H23.8524C23.8524 140.839 23.9496 140.65 23.9496 140.453V140.355L23.8 140.453L23.7476 140.355C23.7476 140.257 23.9945 140.166 23.9945 139.341C23.9945 139.243 23.9945 139.145 24.0469 139.099C24.1442 138.373 24.0469 137.798 24.0469 137.125C24.0469 136.883 24.3462 136.739 24.3462 136.542L24.2938 136.444H24.1442V136.345C24.1966 136.247 24.2938 135.914 24.2938 135.763C24.2938 135.521 24.0993 135.233 24.0993 135.037C24.0993 134.507 24.3986 133.879 24.3986 133.395V131.178C24.3986 130.603 24.84 129.393 24.7427 128.621L24.6455 128.424L24.7427 128.281C24.7427 127.895 24.7427 127.464 24.84 127.078L24.9896 126.836C24.84 125.58 25.7303 123.703 25.7303 122.735L25.678 122.538L25.6256 122.637C25.5732 122.637 25.476 122.591 25.476 122.538C25.476 122.395 25.6705 122.251 25.7752 122.153L25.9698 121.479L26.1194 121.381C26.8077 119.936 28.1395 120.269 29.5162 120.269C31.8356 119.353 33.0177 119.157 35.5317 119.157C39.1305 119.157 43.0211 120.17 43.3653 124.415V124.702C43.3653 125.618 42.8714 126.919 43.0211 127.743H42.9238C43.1183 129.09 40.9037 132.131 39.7664 133.092V133.191C37.0056 135.12 34.8359 136.376 31.2445 136.376C30.5562 136.376 29.9127 136.179 29.2768 136.179H29.0822C29.1795 136.565 29.2319 136.951 29.2319 137.336C29.2319 137.768 29.2319 140.522 29.1795 140.665C28.985 142.11 28.9326 143.555 29.0299 145.008C28.7306 145.348 28.783 147.179 28.4912 147.754L28.2966 147.853L28.2443 147.996V148.185C27.9974 148.382 27.0098 148.526 26.6656 148.526C26.2242 148.526 26.1269 148.238 25.6331 148.238C25.4834 148.238 25.3338 148.238 25.0944 148.337C24.8475 148.193 24.5033 148.095 24.204 147.996C24.0544 147.8 23.7626 147.61 23.5157 147.512L23.5007 147.55ZM30.9901 134H31.4316C32.711 134 36.4071 131.345 36.9009 130.096V129.9C37.4396 129.226 37.7388 128.787 37.7912 127.872H37.8885C38.083 127.63 38.3299 125.701 38.3823 125.315C37.7912 124.014 38.5768 123.772 37.2525 122.228L37.1029 122.183L37.0056 121.895H36.8111C36.6614 121.464 36.1676 121.411 35.7262 121.411C34.3495 121.411 32.8157 122.281 31.5887 122.954H30.9976C30.9976 123.053 31.3942 123.151 31.3942 123.295C31.3942 123.726 30.7507 124.021 30.4066 123.779C30.4066 123.976 30.6535 124.165 30.848 124.021C30.7956 124.263 30.5487 124.21 30.5038 124.407C30.3542 124.604 30.0624 125.95 30.0624 126.193L30.1148 126.336L30.0624 126.525V126.911L29.9651 127.01V127.539L29.8679 127.638C29.6733 128.939 29.6209 129.998 29.6209 131.254C29.6209 131.398 29.5237 131.829 29.4264 131.98L29.5237 132.222C29.4264 132.563 29.3292 132.948 29.2768 133.334C30.0624 133.478 30.3617 133.478 31.0051 134.008L30.9901 134Z" fill="#231F20"/>
    <path d="M45.3854 139.432C45.7445 139.145 45.6472 138.804 45.5949 138.403C45.6996 138.116 46.2159 136.92 45.954 136.799L45.9016 136.572C45.9016 135.997 46.6274 135.77 46.6274 134.628L46.575 134.288H46.4179L46.575 134.061V133.887L46.9341 133.145C46.8818 132.805 47.0389 132.343 47.0389 131.942C47.0389 131.14 47.4504 131.027 47.398 130.111L47.7571 129.309V128.795L47.8619 128.621V128.167C47.8619 127.827 47.8619 127.365 48.1238 127.078H48.2285V127.017C48.2285 126.616 48.9019 124.899 48.6924 124.785C48.9542 123.87 49.4705 123.128 49.4705 122.213C49.4705 121.411 49.4181 121.298 49.9868 120.73C49.9344 120.67 49.882 120.556 49.882 120.503C49.882 120.39 49.9344 120.216 50.0391 120.329L50.7125 118.211C52.0069 117.121 53.1441 117.356 54.6929 117.356C55.2615 117.356 56.1893 117.81 56.1893 118.612C56.1893 118.672 54.6405 123.128 54.6405 123.128C54.1766 125.247 53.9148 127.305 53.1441 129.302C53.2489 129.241 53.2489 129.362 53.2489 129.415C53.2489 129.529 51.1315 139.478 51.0791 139.591H51.2362C52.164 139.19 54.85 137.987 55.7329 137.987C56.1444 137.987 59.5561 137.813 59.5561 138.903C59.5561 139.356 59.1446 139.644 59.2943 140.105C56.915 140.907 50.0466 144.047 48.4978 144.047H48.1387C47.6748 143.533 44.8317 143.934 44.8317 142.163C44.8317 141.361 45.5051 141.195 45.4003 139.417L45.3854 139.432Z" fill="#231F20"/>
    <path d="M64.5316 141.271C64.584 141.028 64.3371 140.544 64.5316 140.31C64.7262 140.068 64.6813 139.826 64.7785 139.583C64.8758 139.341 64.4793 138.766 64.7262 138.57C64.9207 138.373 65.3696 137.268 65.4669 136.928L65.3696 136.353L65.7138 135.922C65.7138 135.922 65.6165 135.634 65.7138 135.438C65.811 135.241 66.3572 132.305 66.3572 132.305C66.3572 132.305 66.4096 132.018 66.5069 131.677C66.6041 131.337 66.2599 131.148 66.6041 130.951C66.9483 130.762 66.4096 130.18 66.7014 130.134C66.9932 130.089 67.0456 129.65 67.0456 129.65C67.0456 129.65 66.9483 128.394 67.1952 128.205C67.4421 128.008 67.2476 127.532 67.2476 127.335C67.2476 127.138 67.1952 126.949 67.3448 126.805C67.4945 126.662 67.5917 126.177 67.7863 126.132C67.9808 126.087 67.8835 124.876 68.0332 124.634C68.1828 124.392 68.5719 123.673 68.5719 123.673C68.5719 123.673 68.6691 123.144 68.8711 123.144C69.0732 123.144 69.0208 122.758 69.2677 122.516C69.5146 122.274 69.4173 121.842 69.6642 121.842C69.9111 121.842 69.567 121.699 69.8588 121.555C70.158 121.411 70.2553 121.025 70.2553 121.025C70.6967 120.836 71.4898 120.594 71.9836 120.45C72.4774 120.307 73.3603 120.11 74.2506 120.208C75.141 120.307 75.8742 120.496 76.3231 120.549C76.7721 120.602 76.7646 120.791 76.9666 121.033C77.1611 121.275 77.1162 121.661 77.408 121.706C77.7073 121.752 77.9018 122.092 77.9018 122.092L78.2011 122.864C78.2011 122.864 78.1038 123.295 78.2984 123.393C78.4929 123.492 78.4929 124.21 78.4929 124.21L78.8371 125.126C78.8371 125.126 78.7847 125.27 78.8371 125.852C78.8894 126.427 79.2336 127.199 79.2785 127.441C79.3309 127.683 79.1289 128.697 79.1289 128.697C79.1289 128.697 79.1812 129.128 79.1289 129.423C79.0765 129.71 79.1289 130.006 79.1289 130.006C79.1289 130.006 79.1289 130.346 79.2261 130.876C79.3234 131.405 79.1738 132.033 79.1738 132.033C79.1738 132.033 79.1214 133.38 79.3234 133.38C79.5179 133.281 79.1738 133.962 79.3234 134.151C79.473 134.348 79.3758 135.067 79.3758 135.067C79.3758 135.067 78.9792 135.354 79.2261 135.74C79.473 136.126 79.0765 136.414 79.3234 136.799C79.5703 137.185 79.8172 137.616 79.6227 137.813C79.4281 138.002 80.0192 138.244 79.9219 138.486C79.8247 138.729 79.8247 138.676 79.8247 139.258C79.8247 139.841 79.5778 140.317 79.5778 140.317C79.5778 141.134 79.0391 142.148 78.0964 142.148C77.6025 142.148 77.4529 142.534 77.0115 142.148C76.57 141.762 76.3231 141.808 76.0762 141.717C75.8293 141.619 75.3355 141.475 75.3355 141.475C75.0886 141.331 75.141 141.278 74.9914 141.134C74.8417 140.991 74.5499 140.65 74.6921 140.506C74.8342 140.363 74.8417 140.219 74.8417 139.878C74.8417 139.538 74.6921 139.205 74.6921 139.008C74.6921 138.812 74.5424 138.623 74.6921 138.138C74.8417 137.654 74.4975 137.707 74.5424 137.268C74.5948 136.837 74.5948 136.928 74.5948 136.64C74.5948 136.353 74.1983 136.255 74.4003 135.914C74.5948 135.574 74.2058 135.483 74.3479 135.188C74.4901 134.893 74.5424 134.704 74.5424 134.515C74.5424 134.325 74.4452 133.743 74.2432 133.788C74.0486 133.834 73.061 134.03 72.7169 134.129C72.3727 134.227 71.8789 134.416 71.5871 134.416C71.2953 134.416 71.2878 134.076 70.9436 134.658C70.5995 135.233 70.5995 135.385 70.5995 135.672C70.5995 135.96 70.6967 136.058 70.6518 136.542C70.5995 137.026 70.1131 136.739 70.1131 137.215C70.1131 137.692 69.8662 137.843 69.9635 138.229C70.0608 138.615 70.0159 138.804 70.0159 138.804C70.0159 138.804 70.3152 139.001 70.0682 139.478C69.8213 139.962 69.7241 140.151 69.6268 140.59C69.5295 141.021 69.4772 141.165 69.5295 141.505C69.5819 141.846 69.6268 141.793 69.4323 142.035C69.2378 142.277 69.4847 142.322 69.2378 142.806C68.9909 143.291 69.0881 142.852 68.9909 143.381C68.8936 143.911 69.2378 143.48 68.6467 144.009C68.0556 144.539 68.0032 144.584 67.6591 144.584C67.3149 144.584 66.9707 144.342 66.7238 144.44C66.4769 144.539 66.23 144.781 65.8858 144.539C65.5417 144.297 65.2424 144.198 65.2424 144.198L64.4568 143.956V143.427C64.4568 143.427 64.3595 142.943 64.3595 142.413C64.3595 141.883 64.5092 141.498 64.5541 141.255L64.5316 141.271ZM71.5272 131.821C71.8265 131.776 71.7218 131.776 72.2156 131.677C72.7094 131.579 73.5922 131.632 73.8915 131.534C74.1908 131.435 74.6771 131.39 74.6771 131.39C74.6771 131.39 74.1833 130.906 74.4826 130.618C74.7819 130.331 74.5799 129.658 74.5799 129.658C74.5799 129.658 74.4302 129.415 74.4826 128.984C74.535 128.553 74.3853 128.167 74.3853 128.167V126.82C74.3853 126.82 74.3329 126.193 74.3329 126.003C74.3329 125.814 74.1833 125.519 74.1833 125.519C74.1309 125.232 74.1833 125.133 74.0337 124.747L73.884 124.362C73.8317 124.604 73.2406 124.316 73.1433 124.99C73.0461 125.663 72.9488 125.86 72.9488 126.102C72.9488 126.344 72.7992 126.586 72.6495 126.828C72.4999 127.07 72.4026 127.168 72.4999 127.554C72.5971 127.94 72.4999 128.182 72.4475 128.371C72.3951 128.568 72.3502 128.757 72.253 129.045C72.1557 129.332 72.4026 129.188 72.1557 129.718C71.9088 130.248 71.8115 130.444 71.8115 130.732C71.8115 131.019 71.6619 130.732 71.5646 131.216C71.4674 131.7 71.5123 131.844 71.5123 131.844L71.5272 131.821Z" fill="#231F20"/>
    <path d="M85.8626 137.072L85.7653 136.875L85.9599 133.887H86.0571C86.0047 133.645 86.1095 133.402 86.0571 133.115C86.1544 132.774 86.2068 132.389 86.2068 132.056L86.1095 131.768H86.4088L86.3564 131.67C86.3564 131.572 86.7978 129.499 86.9998 129.309L87.0971 129.499V129.158H87.1495C87.2991 128.916 87.7929 128.046 87.546 127.857C87.7406 127.902 87.7929 127.569 87.7929 127.426C87.9426 127.327 88.4813 126.026 88.4813 125.882C88.4813 125.739 89.222 125.065 89.3716 125.156L89.3192 125.111C89.3192 125.012 90.3069 124.339 90.5014 124.195V124.097L90.651 124.195L90.7483 123.953C91.9304 123.181 93.1126 122.939 94.5416 122.939C95.23 122.939 95.8734 122.939 96.5617 122.985C96.8087 123.03 98.1404 123.416 97.9384 123.711C98.9709 124.241 99.5171 125.209 99.5171 126.367V126.51L99.3675 126.412H99.3151C99.3151 126.654 99.7116 127.04 99.7116 127.426C99.7116 127.622 99.562 127.812 99.3675 127.857L99.5171 127.955V128.054H99.2702C99.4198 128.099 99.2702 128.341 99.4199 128.394C99.3226 128.591 99.0233 128.591 98.8288 128.538V128.636C98.6791 128.538 98.2377 128.825 97.9384 128.825C97.7439 128.825 97.6391 128.727 97.6391 128.439C97.2426 128.439 95.7163 127.524 94.7287 125.882L94.8259 125.837C94.7736 125.693 94.6763 125.64 94.5267 125.64C94.3321 125.64 94.1301 125.784 94.0329 125.882L93.8383 125.64L93.6887 125.882L93.9356 125.981V126.268L93.8383 126.223C93.6887 126.223 93.6887 126.609 93.4418 126.51L93.4942 126.654V126.752L93.15 126.994L93.2473 127.093C93.1949 127.282 93.15 127.479 93.0527 127.622L92.9031 127.721L93.0004 128.061L92.8058 127.963L92.6562 128.303V128.545C92.4617 128.886 92.2596 129.892 92.1175 129.99V130.331L91.9678 130.528V130.868C91.8182 130.913 91.6237 130.966 91.5264 131.012L91.6761 131.208C90.8904 132.608 91.1374 131.98 91.1374 132.994C91.1374 133.138 91.085 133.281 90.9877 133.425L91.085 133.523L90.8381 133.766V134.197L90.6435 134.242L90.5463 134.583L90.8456 134.968H90.651L90.7483 135.014L90.5538 135.211C90.8007 135.884 90.8979 137.624 90.8979 138.441C90.8979 139.455 91.6835 140.469 92.5739 140.469C93.165 140.469 93.8533 139.984 94.3022 138.683C96.5692 136.565 97.5568 136.028 98.2901 136.028C98.7839 136.028 99.1804 136.315 99.7715 136.413L100.071 136.224C100.856 136.61 100.759 137.14 100.565 138.01C100.265 138.207 99.9211 138.396 99.7266 138.683V138.925L99.3824 139.122C99.2328 139.319 98.8886 139.848 98.6417 139.894L98.739 139.992C98.6417 140.037 98.3948 140.234 98.4921 140.378C98.4397 140.378 98.3948 140.332 98.2976 140.332C98.2626 140.332 98.2452 140.348 98.2452 140.378C98.2452 140.423 98.2976 140.476 98.2976 140.522C98.2976 140.665 97.9534 140.862 97.8038 140.809C97.8561 140.907 97.8561 140.953 97.8561 141.051C97.8561 141.195 97.7065 141.195 97.6092 141.097C97.512 141.195 97.2651 141.437 97.3623 141.581L96.9209 142.012V142.254L96.4794 142.542L96.3298 142.443C96.2774 142.587 96.1802 142.731 95.9856 142.685V142.829C95.9856 143.313 93.7186 143.359 93.4268 143.359C91.7509 143.359 89.6784 143.359 87.6134 141.77C87.4188 141.384 86.334 139.553 86.4312 139.213H86.2367V139.016H86.4312C86.4312 138.774 85.9898 138.585 86.2367 138.343C86.2367 137.813 85.698 137.715 85.8925 137.087L85.8626 137.072Z" fill="#231F20"/>
    <path d="M104.74 143.691C104.807 141.225 105.503 138.842 105.555 136.845C105.555 136.724 105.435 136.61 105.316 136.542L105.443 136.429L105.577 136.141H105.892V136.035L105.705 135.914C105.772 135.801 105.705 135.68 105.585 135.619L105.712 135.506L105.742 134.446C106.056 134.393 107.186 125.33 110.014 122.652C111.024 122.508 111.847 121.941 112.798 121.729C114.503 121.305 116.516 120.897 118.267 120.942C119.329 120.972 120.324 121.177 121.454 121.207C121.828 121.275 122.322 121.585 122.756 121.714L122.988 122.304L122.853 122.712H123.04L123.033 123.007L122.591 122.992C122.337 123.106 122.517 123.401 122.576 123.522C121.125 123.953 119.621 123.908 118.17 124.218C117.227 124.43 115.76 125.148 114.945 125.186H114.698C114.384 125.345 114.496 125.64 114.369 125.875L114.114 126.102L114.099 126.51C114.092 126.805 112.82 129.703 112.805 130.232C112.805 130.354 112.857 130.588 112.985 130.588C113.231 130.588 113.426 130.369 113.561 130.255C114.571 130.051 115.715 129.317 116.718 129.347C117.534 129.37 121.334 129.945 121.312 130.77V130.891L121.058 130.944L121.297 131.299C121.102 131.413 120.975 131.7 120.841 131.874L120.9 131.995L120.833 132.109C119.636 132.252 116.845 133.584 115.326 134.008C114.945 134.114 114.75 134.522 114.309 134.628C113.8 134.787 112.491 134.628 112.109 134.863C111.975 135.15 111.578 136.081 111.63 136.376L111.196 136.187C111.383 136.308 111.563 136.55 111.556 136.724L111.294 137.125L111.473 137.541V137.654L111.159 137.707C111.406 137.889 111.331 138.184 111.451 138.358H111.137V138.464L111.324 138.524L111.256 138.759L111.234 139.583C111.047 139.636 111.039 139.871 111.099 139.992L110.837 140.279L111.084 140.522C110.83 140.635 110.755 140.983 110.942 141.165L110.755 141.218V141.513C110.74 141.687 110.673 141.921 110.486 141.974L110.613 142.035C110.366 142.035 110.598 142.678 110.905 142.685C111.152 142.685 111.997 141.777 112.379 141.611L112.64 141.263L112.827 141.384C113.92 140.476 114.863 140.264 115.611 140.287C116.486 140.31 117.167 140.567 117.736 140.582L117.923 140.703L118.484 140.718C118.484 140.779 118.596 141.195 118.723 141.195C118.723 141.195 118.85 141.142 118.91 141.142H119.037C119.277 141.445 119.599 141.339 119.711 141.694L119.464 141.573C119.142 141.914 119.195 142.39 119.239 142.799C118.918 143.2 118.289 143.124 117.968 143.525C116.995 144.614 116.172 145.121 114.833 145.901C114.578 146.014 114.331 146.007 114.137 146.173C113.381 146.271 112.625 146.362 111.877 146.347C110.875 146.317 109.939 146.233 108.937 146.15C107.762 145.53 105.877 145.833 105.099 144.577L104.784 144.509C104.298 143.85 104.732 144.092 104.747 143.684L104.74 143.691Z" fill="#231F20"/>
  </g>
  <defs>
    <clipPath id="clip0_2_99">
      <rect width="148" height="162" fill="white"/>
    </clipPath>
  </defs>
</svg>
