<svg width="131" height="25" viewBox="0 0 131 25" fill="none"
  xmlns="http://www.w3.org/2000/svg">
  <path d="M0.0708489 19.4846L0.181182 19.5524V19.3415C0.181182 18.7764 0.362444 18.2489 0.401849 17.6838C0.401849 17.292 0.33092 16.9078 0.33092 16.5235C0.33092 16.1016 0.480658 15.7098 0.66192 15.3255C0.551587 15.1823 0.590992 14.5494 0.590992 14.3761C0.74073 14.2028 0.74073 13.9165 0.74073 13.7056H0.780134C0.780134 13.7056 0.709206 13.6377 0.709206 13.6001C0.709206 13.2459 1.11113 12.4021 1.11113 12.1534C1.11113 12.0103 1.04021 11.8671 1.04021 11.6938C1.04021 11.626 1.26087 11.2719 1.30028 11.1664C1.30028 10.6691 1.52094 10.2848 1.52094 9.8252V9.71972H1.37121V9.61423C1.37121 9.33545 1.70221 9.15462 1.63128 8.80049H1.56035V8.76281C1.56035 8.40869 1.85194 8.05456 1.85194 7.67029C1.85194 7.63262 1.85194 7.5648 1.78102 7.52713L1.71009 7.67029V7.63262C1.71009 7.42164 2.1199 6.85655 1.97016 6.78873C2.1199 6.68325 2.19082 6.4346 2.19082 6.29145L2.1199 6.11815L2.37997 5.16878H2.56123C2.56123 5.16878 2.52182 5.0633 2.52182 4.99548C2.52182 3.69199 4.07437 3.86529 4.88611 3.86529C5.14618 3.86529 6.73025 3.33786 7.87299 3.33786C9.56739 3.33786 10.1979 3.65432 11.7425 4.25709C12.0735 4.7167 12.2627 5.13864 12.5149 5.63593V5.80923L12.6252 6.12568L12.5858 6.1935C12.5858 6.29898 12.5858 6.44214 12.5149 6.54762L12.5858 6.61544C12.5858 7.32369 11.9632 9.89301 11.5928 10.5259C11.4431 10.8122 10.9308 11.091 11.0017 11.4753C10.7811 11.6486 10.6707 11.8972 10.4107 12.0781C9.81958 12.5377 9.19699 12.9973 8.60592 13.4569C8.49558 13.5247 8.05425 13.7357 8.01485 13.8412V13.9467C8.08578 13.9843 12.3651 15.8529 12.3651 15.8831C12.5464 15.9886 12.5464 16.1995 12.6961 16.305C12.5149 16.3728 12.5858 16.5537 12.5858 16.6893L12.4361 16.7571C12.3651 16.8626 12.3967 17.0359 12.2548 17.1112C11.9238 17.1112 11.6243 17.2544 11.3327 17.2544C10.8914 17.2544 10.4816 17.0434 9.96932 17.0434C9.78806 16.9756 8.34585 16.4783 8.16458 16.4406C7.90451 16.403 7.24251 15.981 6.98244 15.8755C6.5017 15.8755 5.91063 15.1371 5.02797 15.1371C4.91763 15.1371 4.69697 15.2049 4.58663 15.2426L4.51571 15.3858V15.8454C4.51571 16.3728 4.07437 18.2037 4.18471 18.4222L4.11378 18.7387L4.18471 18.8819C4.11378 19.025 4.03497 19.1606 4.03497 19.3038C4.03497 19.6203 4.18471 19.9744 4.18471 20.2908C4.18471 20.6073 4.1453 21.2402 4.07437 21.5567L3.92463 21.5943V21.843L3.26263 22.0916C2.93163 21.9485 2.97104 22.1293 2.8213 22.1293C2.67156 22.1293 2.4509 21.9861 2.30116 21.9183C0.977158 21.9183 0.638277 21.7074 0.275754 20.5395C0.204825 20.434 0.0944917 20.3285 0.0156822 20.1854C0.126016 19.9066 0.196944 19.7634 0.0866108 19.4771L0.0708489 19.4846ZM4.86247 12.5754C5.3432 12.4021 5.85547 12.1157 6.26528 11.837C6.26528 11.626 7.73901 10.4581 7.81782 10.1417L7.66808 10.104C7.95968 9.50874 8.88175 7.74564 8.66108 7.18054L8.84235 6.79627V6.72846H8.77142C8.84235 6.37433 8.62168 5.13864 8.10942 5.13864C7.99908 5.13864 7.88875 5.13864 7.81782 5.17632C5.05161 6.16336 6.41501 7.5422 5.45354 9.16215C5.6348 10.1492 4.75213 11.7013 4.86247 12.5829V12.5754Z" fill="#F8F3E0"/>
  <path d="M16.2269 18.6031C16.2269 17.1188 16.5973 15.6796 16.5973 14.4741C16.5973 14.4063 16.5264 14.3309 16.4475 14.3008L16.5185 14.233L16.5894 14.0597H16.7707V13.9919L16.6603 13.9241C16.6997 13.8562 16.6603 13.7809 16.5894 13.7508L16.6603 13.683V13.05C16.8416 13.0124 17.3617 7.54974 18.9852 5.89212C19.5763 5.78663 20.057 5.4325 20.6087 5.28934C21.6017 5.01056 22.7838 4.72424 23.8162 4.72424C24.4388 4.72424 25.0299 4.82973 25.6998 4.82973C25.9204 4.8674 26.2199 5.0407 26.4721 5.10851L26.6219 5.46264L26.5509 5.71128H26.6613V5.88458H26.4012C26.2514 5.95239 26.3618 6.13322 26.4012 6.20104C25.55 6.47982 24.6674 6.47982 23.8162 6.69832C23.2646 6.84148 22.4134 7.3011 21.9327 7.33124H21.7829C21.6017 7.43672 21.6726 7.61002 21.6017 7.75318L21.4519 7.89633V8.14498C21.4519 8.31828 20.7505 10.0814 20.7505 10.4054C20.7505 10.4732 20.7899 10.6163 20.8609 10.6163C21.0106 10.6163 21.1209 10.4732 21.1919 10.4054C21.7829 10.2622 22.4449 9.8026 23.036 9.8026C23.5168 9.8026 25.7628 10.0814 25.7628 10.5787V10.6465L25.6131 10.6842L25.7628 10.8951C25.6525 10.9629 25.5816 11.1438 25.5028 11.2493L25.5422 11.3171L25.5028 11.3849C24.8014 11.4904 23.1779 12.3342 22.2952 12.6206C22.0745 12.6884 21.9642 12.937 21.7041 13.0048C21.4125 13.1103 20.6323 13.0425 20.4117 13.1781C20.3407 13.3514 20.1201 13.9165 20.1516 14.0974L19.8915 13.9919C20.0019 14.0597 20.1122 14.2028 20.1122 14.3083L19.9624 14.557L20.0728 14.8056V14.8734L19.8915 14.9111C20.0413 15.0166 20.0019 15.1899 20.0728 15.2954H19.8915V15.3632L20.0019 15.4009L19.9624 15.544V16.0413C19.8521 16.079 19.8521 16.2146 19.8915 16.2899L19.7418 16.4632L19.8915 16.6064C19.7418 16.6742 19.7103 16.8852 19.8206 16.9907L19.7103 17.0283V17.2016C19.7103 17.3071 19.6709 17.4503 19.5605 17.4804L19.6314 17.5181C19.4817 17.5181 19.6314 17.9024 19.8127 17.9024C19.9624 17.9024 20.4432 17.3373 20.6639 17.2318L20.8136 17.0208L20.9239 17.0886C21.5544 16.5235 22.1061 16.3804 22.5474 16.3804C23.0675 16.3804 23.4695 16.5235 23.8005 16.5235L23.9108 16.5913H24.2418C24.2418 16.5913 24.3127 16.8701 24.3915 16.8701C24.3915 16.8701 24.4625 16.8324 24.5019 16.8324H24.5728C24.7225 17.0057 24.9038 16.9379 24.9747 17.1489L24.825 17.0811C24.6437 17.2921 24.6753 17.5784 24.7147 17.8195C24.5334 18.0681 24.163 18.0305 23.9739 18.2791C23.4222 18.9497 22.9414 19.2661 22.1691 19.7634C22.0194 19.8312 21.8775 19.8312 21.7672 19.9367C21.3259 20.0045 20.8845 20.0799 20.4432 20.0799C19.8521 20.0799 19.3004 20.0422 18.7094 20.0121C18.008 19.6579 16.9046 19.8689 16.4239 19.1305L16.2426 19.0928C15.9432 18.7086 16.2032 18.8442 16.2032 18.6031H16.2269Z" fill="#F8F3E0"/>
  <path d="M29.7269 16.4858L29.656 16.3427L29.8058 14.1576H29.8767C29.8373 13.9843 29.9161 13.8035 29.8767 13.5925C29.9476 13.3439 29.987 13.0651 29.987 12.8165L29.9161 12.6055H30.1368L30.0974 12.5377C30.0974 12.4699 30.4284 10.9479 30.5781 10.8122L30.649 10.9554V10.7068H30.6884C30.7988 10.5335 31.1692 9.89302 30.9879 9.75739C31.1376 9.79507 31.1692 9.54642 31.1692 9.44094C31.2795 9.37313 31.6893 8.41622 31.6893 8.31074C31.6893 8.20525 32.241 7.7155 32.3513 7.78331L32.3119 7.74564C32.3119 7.67783 33.0527 7.18054 33.1946 7.07505V7.00724L33.3049 7.07505L33.3758 6.90176C34.2585 6.33666 35.149 6.16336 36.213 6.16336C36.7331 6.16336 37.206 6.16336 37.7261 6.20103C37.9074 6.23871 38.9083 6.51749 38.7585 6.72846C39.5309 7.11273 39.9407 7.82099 39.9407 8.66487V8.77035L39.8303 8.70254H39.7909C39.7909 8.87584 40.0904 9.16216 40.0904 9.44094C40.0904 9.5841 39.9801 9.71972 39.8303 9.75739L39.9407 9.82521V9.89302H39.7594C39.8697 9.93069 39.7594 10.104 39.8697 10.1417C39.7988 10.2848 39.5781 10.2848 39.4284 10.2471V10.315C39.3181 10.2471 38.9871 10.4581 38.7664 10.4581C38.6167 10.4581 38.5457 10.3903 38.5457 10.1718C38.2463 10.1718 37.1035 9.50121 36.3706 8.3032L36.4415 8.26553C36.4021 8.16005 36.3312 8.12237 36.2209 8.12237C36.0711 8.12237 35.9214 8.22786 35.8504 8.29567L35.7007 8.12237L35.5904 8.29567L35.7716 8.36348V8.57445L35.7007 8.53678C35.5904 8.53678 35.5904 8.81556 35.4012 8.74775L35.4406 8.85323V8.92105L35.1806 9.09434L35.2515 9.16216C35.2121 9.30531 35.1806 9.44847 35.1018 9.55396L34.9914 9.62177L35.0624 9.87041L34.9126 9.8026L34.8023 10.0512V10.2245C34.6525 10.4732 34.5028 11.2116 34.4004 11.2794V11.528L34.29 11.6712V11.9198C34.1797 11.9575 34.0299 11.9877 33.959 12.0253L34.0694 12.1685C33.4783 13.1932 33.6674 12.7336 33.6674 13.472C33.6674 13.5775 33.628 13.683 33.5571 13.7884L33.628 13.8562L33.4468 14.0295V14.346L33.297 14.3837L33.2261 14.6323L33.4468 14.9186H33.297L33.3679 14.9563L33.2182 15.0995C33.3995 15.5968 33.4783 16.8626 33.4783 17.4653C33.4783 18.2037 34.0694 18.9497 34.7314 18.9497C35.1727 18.9497 35.6928 18.5955 36.0238 17.6462C37.7182 16.094 38.459 15.7098 39.0107 15.7098C39.3811 15.7098 39.6727 15.9207 40.114 15.9886L40.3347 15.8454C40.9258 16.1242 40.8549 16.516 40.7051 17.1489C40.4844 17.2921 40.2244 17.4277 40.0825 17.6462V17.8195L39.8224 17.9626C39.7121 18.1058 39.452 18.4901 39.2708 18.5277L39.3417 18.5955C39.2708 18.6332 39.0816 18.7688 39.1604 18.8743C39.121 18.8743 39.0895 18.8367 39.0107 18.8367C39.0107 18.8367 38.9976 18.8492 38.9713 18.8743C38.9713 18.8743 39.0107 18.9421 39.0107 18.9798C39.0107 19.0853 38.7506 19.2285 38.6403 19.1908C38.6797 19.2586 38.6797 19.2963 38.6797 19.3641C38.6797 19.4696 38.5694 19.4696 38.4984 19.4018C38.4275 19.4696 38.2384 19.6504 38.3172 19.7559L37.9862 20.0723V20.2456L37.6552 20.4566L37.5449 20.3888C37.5054 20.4943 37.4345 20.5998 37.2848 20.5621V20.6676C37.2848 21.0217 35.5904 21.0518 35.3697 21.0518C34.1166 21.0518 32.5641 21.0518 31.0194 19.8915C30.8697 19.6052 30.058 18.2716 30.1368 18.0229H29.987V17.8798H30.1368C30.1368 17.7065 29.8058 17.5633 29.987 17.3825C29.987 16.9982 29.5851 16.9229 29.7269 16.4632V16.4858Z" fill="#F8F3E0"/>
  <path d="M44.9923 18.4599L44.8426 18.3921L45.0633 17.8948C45.0633 17.7517 45.0239 17.6161 44.9923 17.4352H44.9214L44.9923 17.3297V16.9455H44.9214L44.8505 16.7722C44.9214 16.8099 44.9608 16.84 45.0317 16.84C45.0712 16.84 45.0712 16.8023 45.0712 16.7722L45.0317 16.7044V16.1393L44.9214 16.3502V16.2071C44.9214 15.9208 45.1815 15.6797 45.1815 15.431C45.1815 15.3255 45.1421 15.2577 45.0712 15.1447L45.1815 15.2125L45.2524 15.0392C45.213 14.9714 45.1027 14.8659 45.1027 14.7906H45.1421C45.2524 14.7906 45.2918 14.6851 45.3233 14.5796L45.1027 14.6474V14.5419C45.1027 14.3686 45.1736 14.0522 45.3233 13.9768C45.2524 13.4795 45.5834 13.2686 45.5834 12.9521V12.9144L45.4337 12.9521V12.9144C45.4337 12.7411 45.6543 12.8466 45.6149 12.2815L45.5755 12.3493C45.5755 12.3493 45.4652 12.2815 45.4652 12.2438C45.4652 12.176 46.1666 10.865 46.1666 10.3376C46.1666 9.95331 46.1666 9.81015 46.4582 9.52383L46.6079 9.16971C46.537 9.13203 46.537 9.06422 46.537 8.99641C46.537 8.74777 46.6867 8.49912 46.868 8.3635C46.9074 8.11485 47.4985 6.87917 47.6403 6.74355L47.8216 6.17845H47.861C48.1211 6.17845 48.2708 5.3647 48.3812 5.19141C48.9328 4.20437 50.446 2.37344 51.7384 2.37344H55.7971C57.0502 2.37344 57.2709 3.36048 58.0117 3.50364C58.2323 3.67694 58.3033 3.85777 58.453 4.06874C59.3041 5.26675 59.2647 5.22908 59.5563 6.57025C59.3751 7.17302 59.0756 8.47652 59.115 9.04162L59.1859 9.10943C59.0362 9.17724 58.5633 11.3322 58.5949 11.6486L58.5239 11.7164C58.3742 12.6356 58.1535 13.4795 57.9329 14.3988C57.7122 15.3481 56.7507 17.0058 56.6798 17.3222L56.4197 17.6387V17.7441L56.1597 17.9928V18.2038C55.7577 18.5579 55.5292 19.123 55.1272 19.4394C54.7962 19.6881 54.7962 19.8614 54.5362 20.11C53.3225 21.4512 51.5493 22.6115 49.6342 22.6115C49.0826 22.6115 48.0107 22.5437 47.53 22.3629C47.1281 22.2197 46.7892 21.9786 46.4267 21.8656L45.9459 21.4813L45.7647 21.4437C45.7253 21.3005 45.4652 20.7731 45.3627 20.8786C45.3627 20.7354 45.2918 20.4943 45.1027 20.4943C45.1421 20.4265 45.213 20.2833 45.1736 20.1778L45.0633 19.9292V19.6806L44.9135 19.5374V19.4319C44.9135 19.4319 45.0239 19.1155 45.0633 19.0401L44.9135 18.8668C44.9135 18.7613 44.9845 18.6558 44.9845 18.5504V18.4449L44.9923 18.4599ZM49.4214 20.5772C50.4538 19.9744 53.2595 17.4051 53.1807 16.2749C53.3619 15.7776 53.7008 15.2878 53.9215 14.7906H53.9609C54.0318 14.4364 54.0712 14.2631 54.2209 13.9768C54.1815 13.6227 54.6229 12.711 54.5519 11.9651L54.7017 12.0329C54.7017 12.0329 54.6307 11.9651 54.6307 11.8897C54.6307 11.7466 54.7805 11.6411 54.812 11.5356C54.8829 11.3246 54.9223 11.1136 54.9617 10.9027L54.8908 10.7294C55.1509 10.202 55.2218 9.53137 55.2218 8.9286C55.2218 8.71763 55.6237 8.64981 55.4819 8.1902C55.5213 8.0169 55.742 7.34632 55.742 7.24083C55.742 7.06754 55.671 6.92438 55.671 6.74355H55.6001V6.67573C55.6001 6.42709 55.7814 6.25379 55.7814 6.00515C55.7814 5.47772 55.2297 4.87495 54.749 4.87495C54.4495 4.87495 54.2288 4.66398 53.8978 4.66398C53.7875 4.66398 53.6771 4.66398 53.5274 4.73179L53.3777 4.62631H53.0782C52.5975 5.08592 52.3059 5.57567 51.8961 6.07296C51.9355 6.35928 51.5966 6.53258 51.636 6.81136L51.4547 7.06V7.2333C50.4932 9.03408 49.3899 12.0253 49.3505 14.007C49.3505 14.5721 49.1298 15.0618 49.1692 15.6269L49.0983 15.6947L49.1692 15.9434C48.9486 16.4708 48.9092 17.8798 48.9092 18.4449C48.9092 18.9422 48.9092 20.2457 49.4293 20.5621L49.4214 20.5772Z" fill="#F8F3E0"/>
  <path d="M62.3226 19.4846L62.4329 19.5524V19.3415C62.4329 18.7764 62.6142 18.2489 62.6536 17.6838C62.6536 17.292 62.5826 16.9078 62.5826 16.5235C62.5826 16.1016 62.7324 15.7098 62.9136 15.3255C62.8033 15.1823 62.8427 14.5494 62.8427 14.3761C62.9924 14.2028 62.9924 13.9165 62.9924 13.7056H63.0318C63.0318 13.7056 62.9609 13.6377 62.9609 13.6001C62.9609 13.2459 63.3628 12.4021 63.3628 12.1534C63.3628 12.0103 63.2919 11.8671 63.2919 11.6938C63.2919 11.626 63.5126 11.2719 63.552 11.1664C63.552 10.6691 63.7727 10.2848 63.7727 9.8252V9.71972H63.6229V9.61423C63.6229 9.33545 63.9539 9.15462 63.883 8.80049H63.8121V8.76281C63.8121 8.40869 64.1037 8.05456 64.1037 7.67029C64.1037 7.63262 64.1037 7.5648 64.0327 7.52713L63.9618 7.67029V7.63262C63.9618 7.42164 64.3637 6.85655 64.2219 6.78873C64.3716 6.68325 64.4425 6.4346 64.4425 6.29145L64.3716 6.11815L64.6317 5.16878H64.8129C64.8129 5.16878 64.7735 5.0633 64.7735 4.99548C64.7735 3.69199 66.3182 3.86529 67.1378 3.86529C67.3979 3.86529 68.982 3.33786 70.1247 3.33786C71.8191 3.33786 72.4496 3.65432 73.9942 4.25709C74.3252 4.7167 74.5144 5.13864 74.7666 5.63593V5.80923L74.8769 6.12568L74.8375 6.1935C74.8375 6.29898 74.8375 6.44214 74.7666 6.54762L74.8375 6.61544C74.8375 7.32369 74.2149 9.89301 73.8445 10.5259C73.6948 10.8122 73.1825 11.091 73.2534 11.4753C73.0328 11.6486 72.9224 11.8972 72.6624 12.0781C72.0713 12.5377 71.4487 12.9973 70.8576 13.4569C70.7473 13.5247 70.306 13.7357 70.2666 13.8412V13.9467C70.3375 13.9843 74.6168 15.8529 74.6168 15.8831C74.7981 15.9886 74.7981 16.1995 74.9478 16.305C74.7666 16.3728 74.8375 16.5537 74.8375 16.6893L74.6878 16.7571C74.6168 16.8626 74.6484 17.0359 74.5065 17.1112C74.1755 17.1112 73.876 17.2544 73.5844 17.2544C73.1431 17.2544 72.7333 17.0434 72.221 17.0434C72.0398 16.9756 70.5976 16.4783 70.4163 16.4406C70.1562 16.403 69.4942 15.981 69.2342 15.8755C68.7534 15.8755 68.1623 15.1371 67.2797 15.1371C67.1693 15.1371 66.9487 15.2049 66.8383 15.2426L66.7674 15.3858V15.8454C66.7674 16.3728 66.3261 18.2037 66.4364 18.4222L66.3655 18.7387L66.4364 18.8819C66.3655 19.025 66.2867 19.1606 66.2867 19.3038C66.2867 19.6203 66.4364 19.9744 66.4364 20.2908C66.4364 20.6073 66.397 21.2402 66.3261 21.5567L66.1763 21.5943V21.843L65.5143 22.0916C65.1833 21.9485 65.2227 22.1293 65.073 22.1293C64.9233 22.1293 64.7026 21.9861 64.5529 21.9183C63.2289 21.9183 62.89 21.7074 62.5275 20.5395C62.4565 20.434 62.3462 20.3285 62.2674 20.1854C62.3777 19.9066 62.4487 19.7634 62.3383 19.4771L62.3226 19.4846ZM67.1142 12.5754C67.5949 12.4021 68.1072 12.1157 68.517 11.837C68.517 11.626 69.9907 10.4581 70.0695 10.1417L69.9198 10.104C70.2114 9.50874 71.1335 7.74564 70.9128 7.18054L71.0941 6.79627V6.72846H71.0231C71.0941 6.37433 70.8734 5.13864 70.3611 5.13864C70.2508 5.13864 70.1405 5.13864 70.0695 5.17632C67.3033 6.16336 68.6667 7.5422 67.7053 9.16215C67.8865 10.1492 67.0038 11.7013 67.1142 12.5829V12.5754Z" fill="#F8F3E0"/>
  <path d="M90.9856 5.55304C91.356 6.47227 91.9076 6.47226 92.278 7.73809C92.349 7.94906 92.4593 8.16003 92.4593 8.371C92.4593 8.5443 92.4987 9.96081 92.1992 10.0286C92.2702 10.0663 92.2702 10.0964 92.2702 10.1341C92.2702 10.2019 92.2308 10.2396 92.1992 10.2773C92.1992 10.4204 92.3096 10.6615 92.0889 10.7369V11.3397C92.0889 11.513 91.687 11.6561 91.687 11.7616V11.7993C91.7973 11.7993 91.8682 11.7315 91.947 11.7315H92.018C91.6476 12.0479 91.687 12.2287 91.687 12.613C91.687 12.6808 91.5372 12.7185 91.5057 12.7185V13.1028C91.3245 13.2459 90.8831 14.3008 90.7334 14.6549H90.9146C90.7334 14.8282 90.5442 15.1823 90.3236 15.3255H90.2132L90.2526 15.5741C90.1817 15.6796 89.4015 16.1392 89.701 16.2824C89.2991 16.3879 87.7859 18.151 87.2264 18.151L87.0766 18.0832V18.1887C87.0766 18.475 86.525 18.5428 86.3752 18.7161C85.4926 19.4545 83.4987 20.336 82.3165 20.5169V20.5847L82.5766 21.082C82.5057 21.8957 81.9146 22.1067 81.1344 22.1067C80.4724 22.1067 78.6992 22.0012 78.4785 21.1875C78.3682 20.8032 78.5179 20.4491 78.4785 20.0573L78.2972 20.1251V19.6278L78.0372 19.3113C78.3288 18.7462 78.778 18.4674 78.5573 17.5859C78.7071 17.3372 78.5573 17.2318 78.5573 17.0208C78.5573 16.3879 78.9592 15.8228 78.9277 15.0844C78.8883 15.1221 78.8568 15.0467 78.8883 15.0166L78.9986 14.9789V14.2706C78.9986 14.2706 78.8883 14.2706 78.8883 14.2028C78.8883 14.0973 79.1484 13.924 79.1484 13.3589L79.2587 13.1103C79.2587 13.1103 79.1484 13.0425 79.1484 12.9671C79.1484 12.824 79.2587 12.7938 79.2587 12.613V12.5452L79.1484 12.613V12.5753C79.1484 12.402 79.5188 11.9726 79.5188 11.6938C79.5188 11.626 79.4794 11.5506 79.4085 11.5506C79.4479 11.4451 79.5582 11.1664 79.5188 11.0533L79.4085 10.9855C79.4479 10.7746 79.4794 10.6013 79.5188 10.4204H79.5897C79.6606 10.1341 79.7001 9.893 79.771 9.60668H79.7316L79.6922 9.46352C79.6922 9.17721 79.9916 8.9361 79.9916 8.61964L79.9207 8.47648C79.9207 8.09222 80.1808 7.70041 80.1808 7.31615V7.17299L80.0311 7.31615V7.17299C80.0311 6.78872 80.433 6.60789 80.5118 6.25376C80.6931 4.95026 80.8428 4.55846 82.3953 4.55846C82.4347 4.45298 82.5766 4.49065 82.6869 4.49065C83.6484 4.49065 84.602 4.31735 85.6029 4.31735C88.109 4.31735 88.771 4.60367 90.9856 5.55304ZM83.609 9.92314C83.5381 9.96081 83.5696 10.1341 83.5696 10.2396C83.5696 10.5561 83.5302 10.9102 83.4199 11.2266C83.3805 11.3698 83.1283 11.8595 83.1598 11.965C83.1992 12.1082 83.2307 12.2137 83.2307 12.3493C83.2307 13.0199 82.9706 13.6227 82.9706 14.2857C82.9706 14.7453 82.7894 15.446 82.6396 15.8755V16.5084C82.6396 16.968 82.4899 17.4277 82.4899 17.8496C82.4899 17.9174 82.5293 17.9174 82.6002 17.9174C83.1519 17.9174 86.0285 15.77 86.6195 15.2727V15.2049L86.7299 14.8885H86.8796V14.7152L86.9505 14.7529C86.9505 14.6097 86.9505 14.5042 87.0609 14.3987L87.1712 14.4665C87.7623 13.6227 89.236 10.6615 88.7553 9.1094C88.7947 9.04158 88.8262 8.96624 88.8262 8.89843C88.8262 8.47648 88.5661 7.94906 88.3455 7.55726C88.2745 7.34629 88.3061 7.17299 88.2351 6.99216C87.8647 6.04279 86.4304 5.89963 85.5083 5.89963C84.7675 5.89963 84.1449 5.96744 84.1449 6.88667C84.1449 7.30861 83.6642 9.21488 83.5932 9.92314H83.609Z" fill="#F8F3E0"/>
  <path d="M95.4856 19.0627C95.4856 18.8894 96.2264 18.4976 96.4077 18.4298C96.5574 18.4298 96.6993 18.4674 96.849 18.4674C97.4401 18.4674 99.0635 18.7161 99.0241 17.7968C99.2842 17.6235 99.6467 16.5612 99.5758 16.2447H99.4655L99.5364 16.0714L99.3867 15.8604H99.5364V15.8228L99.3867 15.5364L99.4576 15.0392C99.2763 15.0015 99.3079 14.7604 99.3079 14.6172C99.1581 14.3384 99.0163 14.0521 98.9374 13.7357H98.8665L98.7956 13.8788L98.7247 13.7357V13.6302C98.5749 13.4569 98.3937 13.2082 98.2833 12.9973L98.173 13.0651C98.0233 12.8918 98.173 12.6431 97.842 12.7486V12.7109C97.842 12.5 97.5819 12.2513 97.4401 12.1082H97.3691C97.3297 11.9349 97.2194 11.7239 97.1091 11.5807H97.0697C96.8884 11.4376 97.0697 11.3698 97.0697 11.2643C97.0697 11.2266 96.8884 10.9478 96.849 10.88L96.7387 10.9478C96.6993 10.7745 96.8096 10.5937 96.8096 10.3827V10.3149H96.6599V9.99847L96.7308 9.89299C96.6914 9.36556 96.7702 9.3957 96.912 8.94362C97.0539 8.49154 97.0933 8.09974 97.314 7.60245C97.4637 7.21818 97.905 6.96954 98.0154 6.5476C99.5285 5.13862 99.7886 4.57352 102.035 4.57352C102.555 4.57352 103.106 4.61119 103.619 4.679C104.021 4.71668 105.392 5.2441 105.613 5.2441C105.723 5.4174 105.983 5.8092 105.983 6.02017C105.983 6.19347 105.762 6.19347 105.652 6.16333C105.613 6.26882 105.691 6.3743 105.691 6.47979C105.691 6.65308 105.211 6.58527 105.1 6.58527C104.951 6.69076 104.659 6.69076 104.47 6.72843C104.068 6.58527 103.587 6.51746 103.146 6.55513L102.886 6.41197H102.594C102.413 6.41197 102.113 6.69076 102.003 6.79624V6.83391L101.262 7.54217C101.302 7.79082 100.782 8.92102 100.632 9.16212C100.632 9.47858 100.561 9.83271 100.561 10.1492C100.561 11.8746 103.398 12.8315 103.398 15.6495C103.398 16.0714 103.248 16.531 103.288 16.9153L103.359 17.0584C102.768 17.4804 103.177 20.1627 99.1187 20.1627C98.567 20.1627 95.5014 19.9141 95.6117 19.0325L95.4619 19.1003V19.0627H95.4856Z" fill="#F8F3E0"/>
</svg>
